Coordinates
version=1
nRows=11
nColumns=36
inDegrees=yes

Units are S.I. units (second, meters, Newtons, ...)
If the header above contains a line with 'inDegrees', this indicates whether rotational values are in degrees (yes) or radians (no).

endheader
time	pelvis_tilt	pelvis_list	pelvis_rotation	pelvis_tx	pelvis_ty	pelvis_tz	hip_flexion_r	hip_adduction_r	hip_rotation_r	knee_angle_r	knee_angle_r_beta	ankle_angle_r	subtalar_angle_r	mtp_angle_r	hip_flexion_l	hip_adduction_l	hip_rotation_l	knee_angle_l	knee_angle_l_beta	ankle_angle_l	subtalar_angle_l	mtp_angle_l	lumbar_extension	lumbar_bending	lumbar_rotation	arm_flex_r	arm_add_r	arm_rot_r	elbow_flex_r	pro_sup_r	arm_flex_l	arm_add_l	arm_rot_l	elbow_flex_l	pro_sup_l
      1.46666670	     -7.15585653	      1.04995492	      0.27939566	     -1.07767986	      1.25154778	     -0.08410275	     16.89203520	     -0.35226709	      2.99391349	     23.60874617	      0.41205035	     15.66334071	    -13.42465618	     -7.49999987	     14.96948249	      1.22491223	      4.83636381	     18.75494910	      0.32733561	      9.55854093	    -22.38985651	     -7.49999987	    -15.72195017	      1.88224826	      2.80162856	     -2.63121126	     -7.39359528	    -10.34244941	     37.99955540	     85.25107624	      3.35545089	     -8.20578383	     15.73206643	     33.74860901	     89.91292733
      1.47083330	     -7.32638759	      1.10551455	      0.09565533	     -1.07721943	      1.25116918	     -0.08414407	     17.35071219	     -0.44087024	      3.15590664	     23.91828357	      0.41745280	     15.68064152	    -13.33462882	     -7.49999987	     15.31190184	      1.34060542	      4.78997892	     18.95074566	      0.33075291	      9.62602984	    -22.49387243	     -7.49999987	    -16.06493244	      1.95657471	      2.78336618	     -2.35826400	     -7.54992033	    -10.21798861	     38.30427017	     84.49941541	      3.43692298	     -8.17514026	     15.68146871	     33.92325019	     89.12463790
      1.47500000	     -7.29468456	      1.14392013	     -0.10979646	     -1.07756349	      1.25478145	     -0.08411843	     17.48658525	     -0.51097829	      3.25641415	     24.03705433	      0.41952574	     15.68278885	    -13.08128723	     -7.49999987	     15.50660010	      1.41403847	      4.57525097	     19.40024446	      0.33859814	      9.78344002	    -22.20925950	     -7.49999987	    -16.76404527	      2.02139810	      2.72024883	     -1.96917715	     -7.72495038	     -9.96119594	     38.62942119	     82.92063417	      3.56094808	     -8.11669009	     15.75960549	     34.16735218	     87.36116577
      1.47916670	     -7.52156059	      1.18971083	     -0.23399000	     -1.07699114	      1.24653001	     -0.08399638	     18.14094207	     -0.50514445	      3.53322329	     24.73191301	      0.43165331	     15.91866275	    -13.22771846	     -7.49999987	     16.15125940	      1.46577168	      4.37305717	     20.29511033	      0.35421650	      9.94010265	    -22.58036560	     -7.49999987	    -16.89847999	      2.03933050	      2.65464165	     -1.83645259	     -7.99673474	     -9.16070552	     38.50318198	     82.15028044	      3.65569308	     -8.21838775	     16.50058929	     34.09981374	     86.67255137
      1.48333330	     -7.89023297	      1.24339611	     -0.27752371	     -1.09034430	      1.24640564	     -0.08299834	     19.10452917	     -0.55131474	      3.52365564	     25.24916965	      0.44068114	     16.18015452	    -13.20716553	     -7.49999987	     17.33087698	      1.50011093	      4.22310323	     21.30769128	      0.37188937	     10.01452337	    -22.79803954	     -7.49999987	    -17.21554576	      2.05292690	      2.54567597	     -1.50710779	     -8.15840830	     -9.22646467	     38.98801609	     82.44936115	      4.03246144	     -8.29936937	     16.57959145	     34.35403463	     87.03858488
      1.48750000	     -7.96695139	      1.23979388	     -0.15144183	     -1.08961503	      1.24634760	     -0.08339302	     19.59525416	     -0.53508995	      3.54988820	     25.62299045	      0.44720555	     16.32027719	    -13.29125587	     -7.49999987	     18.13571399	      1.49675859	      4.18966831	     22.14949075	      0.38658154	     10.07006836	    -22.86521965	     -7.49999987	    -17.86814081	      2.08893538	      2.39455429	     -1.15412168	     -8.22863599	     -9.26980476	     39.23167331	     82.54972495	      4.44764175	     -8.38951205	     16.60836232	     34.54620752	     87.17081056
      1.49166670	     -8.31206455	      1.32112378	      0.02438076	     -1.08331926	      1.24606314	     -0.08831171	     20.17064127	     -0.79393969	      3.38654119	     25.97657798	      0.45337681	     16.38987619	    -13.24302894	     -7.49999987	     18.90276429	      1.68702625	      4.19309103	     22.74372326	      0.39695286	     10.27191078	    -22.74276948	     -7.49999987	    -18.11045381	      2.21941669	      2.19138784	     -1.10392515	     -8.45276820	     -9.35049656	     39.68561583	     82.70716184	      4.52009372	     -8.36292738	     16.73746829	     34.83759350	     87.38155874
      1.49583330	     -8.47294133	      1.32034231	     -0.08149408	     -1.08898444	      1.24565979	     -0.08334560	     20.60936770	     -0.72173349	      3.50253392	     26.16230209	      0.45661831	     16.48702694	    -13.10525019	     -7.49999987	     19.37498930	      1.65016664	      4.19615353	     23.14643549	      0.40398151	     10.33481479	    -22.69923722	     -7.49999987	    -18.65162771	      2.20602634	      2.18650196	     -0.74157867	     -8.56626311	     -9.35165253	     39.93212964	     82.76812356	      4.83096825	     -8.39342510	     16.73047143	     34.98842134	     87.44726588
      1.50000000	     -8.77421366	      1.30035719	     -0.03136125	     -1.08274631	      1.24222595	     -0.07878666	     20.99129037	     -0.62437692	      3.33000451	     26.52029152	      0.46286641	     16.87591085	    -12.81240267	     -7.49999987	     19.94298724	      1.45836168	      4.13023957	     23.71586429	      0.41391992	     10.87066655	    -22.07058506	     -7.49999987	    -18.79658115	      2.29381239	      2.14716934	     -0.84591716	     -8.58218998	     -9.21493230	     40.44618944	     83.00905439	      4.60230620	     -8.58415027	     16.69357441	     35.57112380	     87.66978645
      1.50416670	     -9.02954814	      1.40566347	      0.11077497	     -1.08864780	      1.24145215	     -0.08338453	     21.56082571	     -0.75085297	      3.25178694	     27.10628868	      0.47309399	     17.02483283	    -13.16950627	     -7.49999987	     20.54649976	      1.53248631	      3.97123110	     24.10565240	      0.42072300	     11.19773276	    -21.72233969	     -7.49999987	    -19.01139487	      2.22903347	      2.03555337	     -0.69401467	     -8.70812128	     -9.05880462	     40.71952971	     83.34884587	      4.61268095	     -8.76724530	     16.61316513	     36.10403796	     88.00954635
      1.50833330	     -9.10195906	      1.50850181	      0.14633004	     -1.08897262	      1.24161243	     -0.08319921	     21.93582553	     -0.81452128	      3.37349098	     27.55438539	      0.48091475	     17.09221991	    -13.37136531	     -7.49999987	     20.79522733	      1.63872138	      4.02401795	     24.43829350	      0.42652869	     11.38377615	    -21.44189205	     -7.49999987	    -19.49858713	      2.15679099	      1.45028664	     -0.03016990	     -8.71380212	     -8.53808778	     40.81062827	     86.01898522	      4.19575980	     -8.84350519	     14.89152886	     36.98235152	     91.06244096
